<?xml version="1.0" encoding="UTF-8" standalone="no"?>
<!-- Created with Inkscape (http://www.inkscape.org/) -->

<svg
   xmlns:dc="http://purl.org/dc/elements/1.1/"
   xmlns:cc="http://creativecommons.org/ns#"
   xmlns:rdf="http://www.w3.org/1999/02/22-rdf-syntax-ns#"
   xmlns:svg="http://www.w3.org/2000/svg"
   xmlns="http://www.w3.org/2000/svg"
   xmlns:sodipodi="http://sodipodi.sourceforge.net/DTD/sodipodi-0.dtd"
   xmlns:inkscape="http://www.inkscape.org/namespaces/inkscape"
   width="210mm"
   height="297mm"
   viewBox="0 0 744.09448819 1052.3622047"
   id="svg2"
   version="1.1"
   inkscape:version="0.91 r13725"
   sodipodi:docname="shapes.svg">
  <sodipodi:namedview
     id="base"
     pagecolor="#ffffff"
     bordercolor="#666666"
     borderopacity="1.0"
     inkscape:pageopacity="0.0"
     inkscape:pageshadow="2"
     inkscape:zoom="0.49497475"
     inkscape:cx="-42.521266"
     inkscape:cy="278.95441"
     inkscape:document-units="px"
     inkscape:current-layer="layer1"
     showgrid="false"
     inkscape:window-width="1200"
     inkscape:window-height="1857"
     inkscape:window-x="5032"
     inkscape:window-y="-8"
     inkscape:window-maximized="1" />
  <defs
     id="defs4">
    <inkscape:path-effect
       effect="powerstroke"
       id="path-effect4547"
       is_visible="true"
       offset_points="0,0.62001914 | 2.6636542,7.4262331 | 12.272185,2.4295624"
       sort_points="true"
       interpolator_type="SpiroInterpolator"
       interpolator_beta="0.2"
       start_linecap_type="round"
       linejoin_type="round"
       miter_limit="4"
       end_linecap_type="round" />
    <inkscape:path-effect
       effect="spiro"
       id="path-effect4545"
       is_visible="true" />
    <inkscape:path-effect
       end_linecap_type="round"
       miter_limit="4"
       linejoin_type="round"
       start_linecap_type="round"
       interpolator_beta="0.2"
       interpolator_type="SpiroInterpolator"
       sort_points="true"
       offset_points="0,0.62001914 | 3.0763985,7.5985336 | 6,30.339333"
       is_visible="true"
       id="path-effect4541"
       effect="powerstroke" />
    <inkscape:path-effect
       is_visible="true"
       id="path-effect4539"
       effect="spiro" />
  </defs>
  <metadata
     id="metadata7">
    <rdf:RDF>
      <cc:Work
         rdf:about="">
        <dc:format>image/svg+xml</dc:format>
        <dc:type
           rdf:resource="http://purl.org/dc/dcmitype/StillImage" />
        <dc:title></dc:title>
      </cc:Work>
    </rdf:RDF>
  </metadata>
  <g
     inkscape:label="Layer 1"
     inkscape:groupmode="layer"
     id="layer1">
    <path
       inkscape:connector-curvature="0"
       style="opacity:0.34500002;fill:#000000;fill-opacity:1;stroke:#ffffff;stroke-width:1;stroke-linecap:round;stroke-miterlimit:4;stroke-dasharray:3, 1;stroke-dashoffset:0;stroke-opacity:1"
       d="m 412.40542,228.08555 l -2.11563,21.38306 l -6.18884,20.36636 l -10.02502,18.77736 l -13.62412,16.61608 l -16.61608,13.62413 l -18.77737,10.02502 l -20.36636,6.18885 l -21.38305,2.11562 l -21.38306,-2.11562 l -20.36636,-6.18885 l -18.77737,-10.02501 l -16.61608,-13.62413 l -13.62412,-16.61608 l -10.02502,-18.77737 l -6.18885,-20.36636 l -2.11562,-21.38306 l 2.11563,-21.38306 l 6.18884,-20.36636 l 10.02502,-18.77737 l 13.62413,-16.61607 l 16.61608,-13.62413 l 18.77736,-10.02501 l 20.36636,-6.18884 l 21.38306,-2.11563 l 21.38305,2.11563 l 20.36636,6.18885 l 18.77737,10.025 l 16.61607,13.62413 l 13.62413,16.61608 l 10.02501,18.77736 l 6.18885,20.36636 l 2.11563,21.38306 l 0,0"
       id="path4136" />
    <path
       id="rect4159"
       d="m 240.16585,454.10144 l 214.65322,0 l 0,53.22465 l -214.65322,0 z"
       style="opacity:0.34500002;fill:#000000;fill-opacity:1;stroke:#ffffff;stroke-width:0.49911693;stroke-linecap:round;stroke-miterlimit:4;stroke-dasharray:1.49735077, 0.49911692;stroke-dashoffset:0;stroke-opacity:1"
       inkscape:connector-curvature="0" />
    <path
       inkscape:connector-curvature="0"
       style="opacity:0.34500002;fill:#000000;fill-opacity:1;stroke:#ffffff;stroke-width:1;stroke-linecap:round;stroke-miterlimit:4;stroke-dasharray:3, 1;stroke-dashoffset:0;stroke-opacity:1"
       d="m 434.74508,934.55376 l -70.45896,-27.33775 l -47.35038,58.90467 l -11.55429,-74.68813 l -74.68813,-11.55429 l 58.90466,-47.35038 l -27.33775,-70.45896 l 70.45896,27.33775 l 47.35038,-58.90467 l 11.55429,74.68813 l 74.68813,11.55429 l -58.90466,47.35038 z"
       id="path4162" />
    <path
       style="opacity:0.34500002;fill:#000000;fill-opacity:1;stroke:#ffffff;stroke-width:0.5981999;stroke-linecap:round;stroke-miterlimit:4;stroke-dasharray:1.79459969, 0.5981999;stroke-dashoffset:0;stroke-opacity:1"
       d="m 699.10109,368.10559 l -128.70024,0 l -64.35011,-111.45768 l 64.35012,-111.45768 l 128.70024,10e-6 l 64.35012,111.45768 z"
       id="path4178"
       inkscape:connector-curvature="0" />
    <path
       style="opacity:0.34500002;fill:#000000;fill-opacity:1;stroke:#ffffff;stroke-width:0.58781993;stroke-linecap:round;stroke-miterlimit:4;stroke-dasharray:1.76345983, 0.58781994;stroke-dashoffset:0;stroke-opacity:1"
       inkscape:transform-center-y="36.75058"
       d="m 630.71431,669.25298 l -43.72412,-220.50347 l 87.44824,-10e-6 z"
       id="path4181"
       inkscape:connector-curvature="0" />
    <path
       style="opacity:0.34500002;fill:#000000;fill-opacity:1;stroke:#ffffff;stroke-width:0.53969944;stroke-linecap:round;stroke-miterlimit:4;stroke-dasharray:1.61909819, 0.53969939;stroke-dashoffset:0;stroke-opacity:1"
       d="m 726.46824,948.83041 l -87.08572,-29.53163 l -73.69768,54.99722 l 1.17528,-91.94922 l -75.07929,-53.09559 l 87.81208,-27.29611 l 27.29612,-87.81209 l 53.09558,75.07929 l 91.94923,-1.17527 l -54.99722,73.69768 z"
       id="path4185"
       inkscape:connector-curvature="0" />
    <path
       id="path4188"
       d="m 44.402344,54.263672 l -7.03796,2.755057 l -6.230324,4.218407 l -10.637187,10.773274 l -18.8026976,23.875883 l -17.0507554,25.139617 l -30.763204,52.43007 l -7.111528,15.18628 l -5.428282,15.9019 l -3.223422,16.42832 l -0.496949,16.76553 l 1.82968,14.68755 l 3.838745,14.2935 l 5.711652,13.66788 l 7.448404,12.81069 l 9.048999,11.72192 l 10.513439,10.40158 l 11.841721,8.84967 l 13.03384858,7.06618 l 13.63663942,5.06741 l 14.19703,3.17316 l 14.50224,1.28958 l 14.552267,-0.5833 l 14.347112,-2.44552 l 13.886775,-4.29703 l 13.171257,-6.13787 l 12.200556,-7.96802 l 10.48712,-9.03879 l 9.23328,-10.32341 l 7.87096,-11.40942 l 6.40015,-12.29684 l 4.82084,-12.98565 l 3.13306,-13.47587 l 1.33678,-13.76748 l -0.56799,-13.8605 l -3.21726,-17.90136 l -5.67986,-17.25384 l -7.69366,-16.50405 l -9.25869,-15.65199 l -31.538083,-48.73257 l -17.596196,-23.060752 l -19.324728,-21.650642 l -7.042447,-5.111937 l -8.341332,-2.046617 l 0,0"
       style="opacity:0.34500002;fill:#000000;fill-opacity:1;stroke:#ffffff;stroke-width:1;stroke-linecap:round;stroke-miterlimit:4;stroke-dasharray:3, 1;stroke-dashoffset:0;stroke-opacity:1"
       inkscape:connector-curvature="0" />
    <path
       inkscape:connector-curvature="0"
       style="opacity:0.34500002;fill:#000000;fill-opacity:1;stroke:#ffffff;stroke-width:0.5981999;stroke-linecap:round;stroke-miterlimit:4;stroke-dasharray:1.79459969, 0.5981999;stroke-dashoffset:0;stroke-opacity:1"
       d="m 8.4335938,435.86523 l -8.91840194,1.18386 l -8.17199916,3.39661 l -7.0271897,5.37933 l -5.483972,7.132 l -49.175781,85.17188 l -3.433812,8.31494 l -1.144604,8.7749 l 1.144604,8.7749 l 3.433812,8.31494 l 49.175781,85.17579 l 5.484239,7.13144 l 7.0272611,5.37878 l 8.17190133,3.39613 l 8.91816137,1.18349 l 98.3496062,0 l 8.9184,-1.18386 l 8.17201,-3.39661 l 7.02719,-5.37933 l 5.48397,-7.132 l 49.17382,-85.17383 l 3.43381,-8.31494 l 1.14461,-8.7749 l -1.14461,-8.7749 l -3.43381,-8.31494 l -49.17187,-85.17188 l -5.48397,-7.132 l -7.02719,-5.37933 l -8.172,-3.39661 l -8.9184,-1.18386 l -98.3515662,0 l 0,0"
       id="path4343" />
    <path
       inkscape:connector-curvature="0"
       style="opacity:0.34500002;fill:#000000;fill-opacity:1;stroke:#ffffff;stroke-width:1;stroke-linecap:round;stroke-miterlimit:4;stroke-dasharray:3, 1;stroke-dashoffset:0;stroke-opacity:1"
       d="m 93.137835,708.2168 l -5.425797,1.15893 l -4.363265,3.427 l -5.919922,7.36329 l -5.917969,7.36328 l -5.919922,7.36328 l -5.917969,7.36328 l -5.917968,7.36328 l -5.917969,7.35938 l -0.002,0.002 l -5.917969,7.36328 l -0.283203,0.35156 l -0.419922,-0.16211 l -8.804687,-3.41797 l -0.002,0 l -8.808594,-3.41796 l -0.0019,0 l -8.804688,-3.41602 l -8.8046867,-3.41797 l -0.0039,0 l -8.80664,-3.41601 l -8.8046883,-3.41797 l -8.80664,-3.41797 l -6.97821,-0.56797 l -6.156098,3.33473 l -3.336248,6.15528 l 0.566259,6.97835 l 3.416015,8.80859 l 0,0.004 l 3.417969,8.80469 l 3.417969,8.80859 l 3.416015,8.80469 l 0,0.004 l 3.417969,8.80469 l 3.416016,8.80664 l 0,0.004 l 3.417969,8.80469 l 0.164062,0.41992 l -0.351562,0.2832 l -7.363282,5.91602 l -0.002,0.002 l -7.363281,5.91992 l -7.361328,5.91797 l -7.363281,5.91797 l -7.363282,5.91992 l -7.363281,5.91797 l -7.363281,5.91992 l -3.97992,5.76011 l -0.188729,6.99879 l 3.663708,5.96624 l 6.327206,2.99752 l 9.333985,1.44336 l 9.337891,1.44531 l 0.002,0 l 9.333984,1.44336 l 9.333984,1.44531 l 0.0039,0 l 9.333984,1.44336 l 9.3339843,1.44531 l 0.002,0 l 9.333984,1.44336 l 0.002,0 l 0.445313,0.0684 l 0.06836,0.44531 l 0,0.004 l 1.445312,9.33399 l 1.4433597,9.33398 l 0,0.004 l 1.445312,9.33398 l 1.44336,9.33398 l 1.443359,9.33594 l 0,0.004 l 1.445312,9.33203 l 1.44336,9.33594 l 2.997526,6.3272 l 5.96623,3.66371 l 6.998788,-0.18873 l 5.760112,-3.97992 l 5.919922,-7.36328 l 5.917969,-7.36328 l 5.919922,-7.36328 l 5.917968,-7.36328 l 5.919922,-7.36328 l 5.917969,-7.36329 l 5.917969,-7.36132 l 0.283203,-0.35157 l 0.419922,0.16211 l 8.808594,3.41797 l 8.804687,3.41797 l 0.0039,0 l 8.806643,3.41602 l 8.80469,3.41797 l 0.004,0 l 8.80468,3.41601 l 8.80469,3.41797 l 0.002,0 l 8.8086,3.41797 l 6.97828,0.56711 l 6.15568,-3.33549 l 3.33549,-6.15568 l -0.56711,-6.97828 l -3.41797,-8.8086 l 0,-0.002 l -3.41797,-8.80469 l -3.41601,-8.80664 l 0,-0.004 l -3.41797,-8.80468 l -3.41602,-8.80469 l 0,-0.002 l -3.41796,-8.8086 l -3.41602,-8.80469 l 0,-0.004 l -0.16406,-0.41797 l 0.35156,-0.2832 l 7.36328,-5.91797 l 7.36328,-5.91992 l 7.36328,-5.91797 l 0.002,-0.002 l 7.35937,-5.91797 l 7.36328,-5.91796 l 7.36328,-5.91797 l 7.36329,-5.91992 l 3.97992,-5.76012 l 0.18873,-6.99879 l -3.66371,-5.96623 l -6.32721,-2.99752 l -9.33399,-1.44336 l -9.33398,-1.44531 l -0.004,0 l -9.33593,-1.44336 l -9.33399,-1.44531 l -0.002,0 l -9.33398,-1.44336 l -9.33399,-1.44532 l -0.004,0 l -9.33398,-1.44336 l -0.44727,-0.0684 l -0.0684,-0.44727 l -1.44336,-9.33399 l 0,-0.004 l -1.44531,-9.33399 l -1.44336,-9.33398 l 0,-0.004 l -1.44531,-9.33398 l -1.44336,-9.33398 l 0,-0.004 l -1.44531,-9.33402 l -1.44336,-9.33398 l -1.40965,-4.10553 l -2.65757,-3.27655 l -3.607352,-2.18756 l -4.259023,-0.83856 l 0,0"
       id="path4373" />
    <path
       id="path4375"
       d="m 529.63734,614.51411 l -3.15624,9.64017 l -9.23296,9.18182 l -14.95608,8.46544 l -20.32545,7.49106 l -24.78908,6.1422 l -28.01347,4.5196 l -30.38402,2.79013 l -31.9008,0.95379 l -31.90083,-0.95379 l -30.38401,-2.79013 l -28.01347,-4.5196 l -24.78909,-6.14219 l -20.32545,-7.49107 l -14.95606,-8.46544 l -9.23298,-9.18182 l -3.15624,-9.64017 l 3.15625,-9.64017 l 9.23297,-9.18181 l 14.95606,-8.46544 l 20.32547,-7.49107 l 24.78909,-6.14219 l 28.01345,-4.5196 l 30.38401,-2.79012 l 31.90083,-0.9538 l 31.9008,0.9538 l 30.38402,2.79013 l 28.01347,4.51959 l 24.78906,6.14219 l 20.32547,7.49107 l 14.95606,8.46544 l 9.23298,9.18181 l 3.15624,9.64017 l 0,0"
       style="opacity:0.34500002;fill:#000000;fill-opacity:1;stroke:#ffffff;stroke-width:0.82011247;stroke-linecap:round;stroke-miterlimit:4;stroke-dasharray:2.46033758, 0.82011252;stroke-dashoffset:0;stroke-opacity:1"
       inkscape:connector-curvature="0" />
    <path
       sodipodi:nodetypes="cccc"
       inkscape:connector-curvature="0"
       id="path4463"
       d="m 78.571428,1129.505 l -5.734166,-8.154 l -3.375767,-8.7294 l -1.17013,-9.0098 l 0.882743,-8.9952 l 2.782855,-8.6855 l 4.530204,-8.0807 l 6.124792,-7.1809 l 7.566616,-5.9859 l 8.855679,-4.4961 l 9.991976,-2.711 l 10.97552,-0.6309 l 11.80629,1.7442 l 12.48431,4.4144 l 13.00955,7.3797 l 13.38205,10.64 l 13.60177,14.1954 l 4.94978,12.4864 l 1.23326,16.1548 l -2.01451,19.2058 l -4.79353,21.6396 l -16.04911,48.1111 l -21.54018,50.438 l -23.28125,47.8265 l -21.27232,40.2762 l -21.517862,38.1473 l 13.473774,-68.5937 l 6.191407,-56.4063 l 0.599891,-45.1562 l -3.300784,-34.8438 l -5.510603,-25.4687 l -6.029576,-17.0313 l -6.852679,-12.5 l 0,0"
       style="fill:#b3b3b3;fill-rule:evenodd;stroke:#000000;stroke-width:1px;stroke-linecap:butt;stroke-linejoin:miter;stroke-opacity:1" />
    <path
       style="fill:#b3b3b3;fill-rule:evenodd;stroke:#000000;stroke-width:1px;stroke-linecap:butt;stroke-linejoin:miter;stroke-opacity:1"
       d="m 267.14286,1209.3228 l -5.40009,7.2735 l -2.43285,6.3794 l 0.29263,5.6273 l 2.77637,5.017 l 5.01834,4.5488 l 7.01856,4.2224 l 19.07081,8.0337 l 51.50726,18.3966 l 28.56842,12.6341 l 27.86627,16.4386 l -71.65471,-49.9183 l 17.23921,-9.9071 l 13.60299,-11.5677 l 10.31505,-12.911 l 7.37538,-13.9368 l 4.78397,-14.6455 l 2.54082,-15.0368 l 0.64596,-15.1107 l -0.90065,-14.8673 l -5.04805,-27.7354 l -7.05526,-22.9539 l -8.98757,-21.4095 l 6.67794,34.5473 l 2.68311,28.9516 l -0.81996,23.8204 l -3.83127,19.1539 l -6.35079,14.9519 l -8.37856,11.2144 l -9.91455,7.9416 l -10.95878,5.1332 l -11.51123,2.7895 l -11.57192,0.9103 l -21.35881,-1.9587 l -15.70034,-3.9007 l -6.1077,-2.1261 l 0,0"
       id="path4465"
       inkscape:connector-curvature="0"
       sodipodi:nodetypes="ccscc" />
    <path
       inkscape:connector-curvature="0"
       id="path4537"
       d="m 463.82604,1224.8377 l -5.40993,-16.5577 l -2.25681,-17.2525 l 0.91336,-17.3601 l 4.10058,-16.8804 l 7.20208,-15.7497 l 9.932,-14.0654 l 12.25704,-11.9595 l 14.17719,-9.4321 l 15.93979,-6.643 l 16.73212,-3.4719 l 16.91042,-0.2978 l 16.47466,2.8794 l 4.83265,1.5043 l 13.88354,6.2183 l 12.39892,8.4192 l 10.59157,10.2768 l 8.46148,11.7908 l 6.46257,14.0243 l 3.58243,14.6892 l 0.73109,14.7688 l -2.09148,14.2631 l -4.77931,13.2169 l -7.04979,11.7158 l -8.88943,9.8451 l -10.29824,7.6045 l -5.12279,6.1257 l -3.30666,7.1252 l -1.36797,7.735 l 0.69327,7.9553 l 2.74361,7.4993 l 4.51724,6.4262 l 6.01474,5.0522 l 7.23611,3.3773 l 7.8664,1.3736 l 7.8239,-0.699 l 7.38271,-2.6828 l 6.54284,-4.578 l 13.69718,-18.9411 l 9.84433,-20.662 l 5.92302,-21.655 l 1.9332,-21.9199 l -2.06954,-21.5208 l -5.78891,-20.4301 l -9.13313,-18.7763 l -12.10219,-16.5596 l -13.49944,-12.9174 l -15.23648,-10.3706 l -16.49358,-7.6727 l -17.27072,-4.8237 l -5.84129,-0.9488 l -19.11955,-0.7973 l -18.77051,2.5749 l -17.85892,5.7412 l -16.38479,8.7018 l -14.13484,11.1726 l -11.93634,13.3709 l -9.44572,15.1146 l -6.66298,16.4036 l -3.65518,17.2657 l -0.63363,17.6336 l 2.35544,17.4703 l 5.31201,16.7761 l 0.8131,0.3261 l 0.32756,-0.8125 l 0,0"
       style="fill:#b3b3b3;fill-rule:evenodd;stroke:#000000;stroke-width:0.62001914px;stroke-linecap:butt;stroke-linejoin:miter;stroke-opacity:1" />
    <path
       inkscape:connector-curvature="0"
       id="path4543"
       d="m 153.87458,1489.3287 l 1.95131,-29.2567 l 7.55486,-28.1918 l 12.71461,-26.1115 l 17.43057,-23.0158 l 21.58352,-18.9836 l 24.76454,-14.3861 l 26.93398,-9.3784 l 28.09185,-3.961 l 22.97421,2.1973 l 10.9229,2.9877 l 14.71885,7.1473 l 11.82864,10.2517 l 7.73815,12.8899 l 2.61749,14.0233 l -3.2233,13.2046 l -8.03045,10.1411 l -7.91344,4.3451 l -9.6108,2.2652 l -10.61327,0.2244 l -11.30322,-1.3936 l -24.0123,-5.9312 l -13.15102,-2.7017 l -13.28138,-1.2518 l -18.42004,1.8362 l -17.33609,6.081 l -15.38215,9.8321 l -12.55826,13.0898 l -8.90957,15.6596 l -4.91825,17.1624 l -0.84452,17.6888 l 3.31157,17.239 l 8.20888,17.059 l 7.32932,10.2215 l 8.92971,8.8729 l 10.28559,7.2551 l 11.39691,5.3682 l 16.83218,3.8926 l 17.28153,-0.1466 l 16.79602,-4.0702 l 15.37564,-7.8781 l 0.64532,-3.3745 l -3.37438,-0.6459 l -14.34996,7.3477 l -15.68935,3.7988 l -16.14207,0.1401 l -15.70816,-3.6283 l -10.61966,-5.0037 l -9.60346,-6.775 l -8.35078,-8.2964 l -6.86165,-9.5679 l -6.20547,-16.3064 l -1.71728,-15.7784 l 1.97623,-15.6164 l 5.39175,-14.6321 l 8.52924,-12.8252 l 11.29178,-10.2899 l 13.28927,-7.3476 l 14.48717,-4.1391 l 14.88546,-0.6645 l 11.46448,1.8826 l 11.12448,3.1285 l 24.39101,7.4867 l 13.38188,2.9228 l 14.35741,0.7401 l 14.92468,-2.693 l 14.12946,-7.1879 l 8.58877,-8.2854 l 6.1572,-10.083 l 3.48,-11.1209 l 0.82403,-11.4518 l -1.46468,-11.1837 l -3.59777,-10.5058 l -5.40168,-9.5646 l -6.8764,-8.3602 l -8.01136,-6.9753 l -8.84095,-5.6111 l -19.13882,-7.3311 l -13.25819,-2.2602 l -25.8614,0.3904 l -15.24666,1.9647 l -14.93089,3.4773 l -28.40759,11.2052 l -25.62389,16.3937 l -11.45127,9.9629 l -10.3752,11.0445 l -9.17418,12.027 l -7.89386,12.8484 l -11.80169,27.6038 l -6.24511,29.2186 l -0.94814,14.8668 l 0.54984,14.8528 l 0.65686,0.5809 l 0.58086,-0.6569 l 0,2e-4"
       style="fill:#b3b3b3;fill-rule:evenodd;stroke:#000000;stroke-width:0.62001914px;stroke-linecap:butt;stroke-linejoin:miter;stroke-opacity:1" />
    <path
       sodipodi:nodetypes="ccccccccccccccccccc"
       inkscape:connector-curvature="0"
       style="opacity:0.34500002;fill:#000000;fill-opacity:1;stroke:#ffffff;stroke-width:0.95540053;stroke-linecap:round;stroke-miterlimit:4;stroke-dasharray:2.86620174, 0.95540057;stroke-dashoffset:0;stroke-opacity:1"
       d="m 612.42622,73.085539 l -4.28946,9.626665 l -12.54798,9.168958 l -20.32594,8.453578 l -27.62315,7.48057 l -33.6894,6.13359 l -38.07149,4.51327 l -41.29316,2.78622 l -43.35453,0.95246 l 0,-98.230611 l 43.35453,0.952464 l 41.29316,2.786221 l 38.07149,4.513258 l 33.68938,6.133586 l 27.62317,7.480576 l 20.32591,8.453582 l 12.54801,9.168947 l 4.28946,9.626666 l 0,0"
       id="path4639" />
  </g>
</svg>
